{"title":"Romanii Au Talent S02E01 720p H264-playHD","uid":6289947,"size":6508401003,"categoryP":"video","categoryS":"hd___tv_shows","magnet":"?xt=urn:btih:f6bf1c85982f926651165b51a5d1626d9c07f392&amp;dn=Romanii+Au+Talent+S02E01+720p+H264-playHD&amp;tr=udp%3A%2F%2Ftracker.openbittorrent.com%3A80&amp;tr=udp%3A%2F%2Fopen.demonii.com%3A1337&amp;tr=udp%3A%2F%2Ftracker.coppersurfer.tk%3A6969&amp;tr=udp%3A%2F%2Fexodus.desync.com%3A6969","seeders":0,"leechers":0,"uploader":"ToXiC313","files":3,"time":1301762521,"description":"General\nFormat                           : Matroska\nFile size                        : 6.06 GiB\nDuration                         : 2h 45mn\nOverall bit rate                 : 5 257 Kbps\nMovie name                       : Romanii Au Talent Semifinala1 HDTV 1080i H264-playHD\nEncoded date                     : UTC 2011-04-02 11:37:14\nWriting application              : mkvmerge v4.4.0 ('Die Wiederkehr') built on Oct 31 2010 21:52:48\nWriting library                  : libebml v1.0.0 + libmatroska v1.0.0\n\nVideo\nID                               : 1\nFormat                           : AVC\nFormat/Info                      : Advanced Video Codec\nFormat profile                   : &lt;a class=&quot;__cf_email__&quot; href=&quot;/cdn-cgi/l/email-protection&quot; data-cfemail=&quot;eaa2838d82aaa6dec4da&quot;&gt;[email&amp;#160;protected]&lt;/a&gt;&lt;script cf-hash='f9e31' type=&quot;text/javascript&quot;&gt;\n/* &lt;![CDATA[ */!function(){try{var t=&quot;currentScript&quot;in document?document.currentScript:function(){for(var t=document.getElementsByTagName(&quot;script&quot;),e=t.length;e--;)if(t[e].getAttribute(&quot;cf-hash&quot;))return t[e]}();if(t&amp;&amp;t.previousSibling){var e,r,n,i,c=t.previousSibling,a=c.getAttribute(&quot;data-cfemail&quot;);if(a){for(e=&quot;&quot;,r=parseInt(a.substr(0,2),16),n=2;a.length-n;n+=2)i=parseInt(a.substr(n,2),16)^r,e+=String.fromCharCode(i);e=document.createTextNode(e),c.parentNode.replaceChild(e,c)}}}catch(u){}}();/* ]]&gt; */&lt;/script&gt;\nFormat settings, CABAC           : Yes\nFormat settings, ReFrames        : 3 frames\nFormat settings, GOP             : M=2, N=29\nCodec ID                         : V_MPEG4/ISO/AVC\nDuration                         : 2h 45mn\nBit rate mode                    : Variable\nBit rate                         : 5 000 Kbps\nMaximum bit rate                 : 25.0 Mbps\nWidth                            : 1 280 pixels\nHeight                           : 720 pixels\nDisplay aspect ratio             : 16:9\nFrame rate                       : 25.000 fps\nColor space                      : YUV\nChroma subsampling               : 4:2:0\nBit depth                        : 8 bits\nScan type                        : Progressive\nBits/(Pixel*Frame)               : 0.217\nStream size                      : 5.64 GiB (93%)\nWriting library                  : x264 core 112 r1867 22bfd31\n\n\nAudio\nID                               : 2\nFormat                           : MPEG Audio\nFormat version                   : Version 1\nFormat profile                   : Layer 2\nCodec ID                         : A_MPEG/L2\nCodec ID/Hint                    : MP2\nDuration                         : 2h 45mn\nBit rate mode                    : Constant\nBit rate                         : 256 Kbps\nChannel(s)                       : 2 channels\nSampling rate                    : 48.0 KHz\nCompression mode                 : Lossy\nStream size                      : 302 MiB (5%)\nLanguage                         : Romanian\n\n\nSCREENSHOTS: &lt;a href=&quot;\nhttp://img683.imageshack.us/img683/9362/romaniiautalents02e0172.png&quot; rel=&quot;nofollow&quot; target=&quot;_NEW&quot;&gt;\nhttp://img683.imageshack.us/img683/9362/romaniiautalents02e0172.png&lt;/a&gt; &lt;a href=&quot;\nhttp://img218.imageshack.us/img218/9362/romaniiautalents02e0172.png&quot; rel=&quot;nofollow&quot; target=&quot;_NEW&quot;&gt;\nhttp://img218.imageshack.us/img218/9362/romaniiautalents02e0172.png&lt;/a&gt;\n\n","torrent":{"xt":"urn:btih:f6bf1c85982f926651165b51a5d1626d9c07f392","amp;dn":"Romanii+Au+Talent+S02E01+720p+H264-playHD","amp;tr":["udp%3A%2F%2Ftracker.openbittorrent.com%3A80","udp%3A%2F%2Fopen.demonii.com%3A1337","udp%3A%2F%2Ftracker.coppersurfer.tk%3A6969","udp%3A%2F%2Fexodus.desync.com%3A6969"],"infoHash":"f6bf1c85982f926651165b51a5d1626d9c07f392","infoHashBuffer":{"type":"Buffer","data":[246,191,28,133,152,47,146,102,81,22,91,81,165,209,98,109,156,7,243,146]},"announce":[],"urlList":[]}}